<?xml version="1.0" standalone="no"?>
<!DOCTYPE svg PUBLIC "-//W3C//DTD SVG 20010904//EN"
 "http://www.w3.org/TR/2001/REC-SVG-20010904/DTD/svg10.dtd">
<svg version="1.0" xmlns="http://www.w3.org/2000/svg"
 width="128.000000pt" height="128.000000pt" viewBox="0 0 128.000000 128.000000"
 preserveAspectRatio="xMidYMid meet">

<g transform="translate(0.000000,128.000000) scale(0.100000,-0.100000)"
fill="#000000" stroke="none">
<path d="M52 1228 c-7 -7 -12 -19 -12 -28 0 -31 23 -40 97 -40 40 0 73 -2 73
-4 0 -6 130 -558 136 -578 4 -12 -2 -19 -19 -23 -14 -4 -38 -20 -53 -36 -24
-25 -29 -39 -29 -79 0 -43 5 -54 33 -82 l32 -33 377 0 c347 0 377 1 387 18 8
12 8 22 0 35 -10 15 -43 17 -374 22 -331 5 -364 7 -374 23 -8 12 -8 22 0 35
10 15 43 17 380 22 389 5 399 6 428 53 24 38 109 414 102 451 -3 18 -20 46
-37 62 l-30 29 -429 3 -429 3 -10 37 c-6 20 -13 51 -17 67 -4 17 -11 36 -17
43 -13 16 -198 17 -215 0z m1098 -244 c11 -12 6 -48 -33 -211 -25 -108 -52
-200 -59 -204 -13 -9 -628 -13 -628 -5 0 2 -22 99 -50 216 -27 117 -50 214
-50 216 0 2 182 4 404 4 353 0 405 -2 416 -16z"/>
<path d="M435 271 c-45 -20 -70 -60 -70 -112 0 -42 5 -53 33 -81 28 -28 39
-33 82 -33 43 0 54 5 82 33 28 28 33 39 33 82 0 42 -5 54 -31 81 -33 33 -92
46 -129 30z m75 -86 c15 -18 10 -45 -12 -59 -35 -22 -74 27 -48 59 16 19 44
19 60 0z"/>
<path d="M875 271 c-45 -20 -70 -60 -70 -112 0 -42 5 -53 33 -81 28 -28 39
-33 82 -33 43 0 54 5 82 33 28 28 33 39 33 82 0 42 -5 54 -31 81 -33 33 -92
46 -129 30z m75 -86 c15 -18 10 -45 -12 -59 -35 -22 -74 27 -48 59 16 19 44
19 60 0z"/>
</g>
</svg>
