<?xml version="1.0" standalone="no"?>
<!DOCTYPE svg PUBLIC "-//W3C//DTD SVG 20010904//EN"
 "http://www.w3.org/TR/2001/REC-SVG-20010904/DTD/svg10.dtd">
<svg version="1.0" xmlns="http://www.w3.org/2000/svg"
 width="64.000000pt" height="64.000000pt" viewBox="0 0 64.000000 64.000000"
 preserveAspectRatio="xMidYMid meet">

<g transform="translate(0.000000,64.000000) scale(0.100000,-0.100000)"
fill="#000000" stroke="none">
<path d="M136 584 l-48 -26 6 -46 c3 -25 17 -63 31 -84 20 -30 25 -50 25 -102
0 -67 -12 -85 -38 -59 -17 16 -84 17 -100 1 -16 -16 -16 -210 0 -226 20 -20
85 -15 101 8 l14 20 47 -20 c40 -17 69 -20 179 -20 l132 0 79 73 c72 66 79 75
72 101 -4 16 -16 30 -27 33 -15 4 -18 11 -13 27 17 53 -1 161 -32 187 -24 20
-26 5 -4 -42 22 -49 25 -111 7 -150 -7 -14 -33 -44 -58 -67 l-46 -42 -92 0
c-70 0 -92 3 -89 13 3 7 29 14 64 17 45 4 61 9 69 25 6 11 19 32 29 48 17 25
17 29 2 52 -16 25 -34 32 -91 37 -25 3 -30 7 -30 28 0 23 4 25 63 30 66 5 89
23 36 28 -22 2 -34 9 -37 24 -6 21 -27 16 -27 -7 0 -7 -9 -17 -20 -20 -11 -4
-28 -18 -37 -31 -15 -24 -15 -27 4 -52 16 -21 31 -28 69 -32 44 -5 49 -7 49
-30 0 -17 -5 -24 -15 -21 -8 3 -64 7 -125 10 l-110 6 -3 48 c-3 45 -1 48 17
42 26 -8 85 51 101 102 7 21 19 44 28 51 19 15 81 16 118 2 18 -7 31 -7 37 -1
16 16 -36 31 -104 31 -48 0 -68 6 -107 30 -27 17 -55 30 -63 30 -8 -1 -36 -12
-63 -26z m144 -58 c-1 -29 -33 -98 -57 -119 -27 -24 -48 -13 -78 38 -37 62
-33 95 13 121 l37 20 43 -20 c29 -14 42 -26 42 -40z m-182 -368 l3 -98 -36 0
-35 0 0 93 c0 52 3 97 7 101 4 4 19 6 33 4 25 -3 25 -4 28 -100z m297 62 c0
-11 -15 -16 -60 -18 -42 -2 -64 -8 -72 -19 -17 -22 -16 -28 3 -47 12 -12 37
-16 110 -16 l95 0 54 51 c35 33 60 49 70 45 28 -10 16 -32 -55 -100 l-70 -68
-128 4 c-109 3 -134 7 -174 28 l-48 24 0 57 c0 45 4 60 18 68 10 6 68 10 137
8 99 -2 120 -5 120 -17z"/>
<path d="M216 511 c-10 -11 -25 -17 -37 -14 -23 6 -25 -9 -4 -27 13 -11 21 -8
45 15 17 16 30 32 30 37 0 14 -16 9 -34 -11z"/>
<path d="M506 501 c-4 -7 -5 -15 -2 -18 9 -9 19 4 14 18 -4 11 -6 11 -12 0z"/>
</g>
</svg>
